#define ioserv_width 40
#define ioserv_height 48
static char ioserv_bits[] = {
   0x00, 0x00, 0x00, 0x00, 0x00, 0x00, 0x00, 0x00, 0x00, 0x00, 0x00, 0x00,
   0x00, 0x00, 0x00, 0x00, 0x00, 0x00, 0x00, 0x00, 0x00, 0x00, 0x00, 0x00,
   0x00, 0x00, 0x00, 0x3e, 0x00, 0x00, 0x00, 0x80, 0xc1, 0x00, 0x00, 0x00,
   0x40, 0x00, 0x01, 0x00, 0x40, 0x20, 0x14, 0x02, 0x00, 0x40, 0x10, 0x14,
   0x04, 0x00, 0x40, 0x08, 0x04, 0x08, 0x00, 0x40, 0xeb, 0x94, 0xeb, 0x00,
   0xc0, 0x14, 0x55, 0x14, 0x01, 0x40, 0x14, 0x55, 0x14, 0x00, 0x40, 0xf4,
   0x55, 0xf4, 0x00, 0x40, 0x14, 0x54, 0x04, 0x01, 0x40, 0x14, 0x55, 0x14,
   0x01, 0x40, 0xec, 0x94, 0xeb, 0x00, 0x00, 0x08, 0x00, 0x08, 0x00, 0x00,
   0x10, 0x00, 0x04, 0x00, 0x00, 0x20, 0x00, 0x02, 0x00, 0x00, 0x40, 0x00,
   0x01, 0x00, 0x00, 0x80, 0xc1, 0x00, 0x00, 0x00, 0x00, 0x3e, 0x00, 0x00,
   0x00, 0x00, 0x00, 0x00, 0x00, 0x00, 0x00, 0x00, 0x00, 0x00, 0x00, 0x00,
   0x00, 0x00, 0x00, 0x00, 0x00, 0x00, 0x00, 0x00, 0x00, 0x00, 0x00, 0x00,
   0x00, 0x00, 0x00, 0x00, 0x00, 0x00, 0x00, 0x00, 0x00, 0x00, 0x00, 0xce,
   0x38, 0x77, 0xa2, 0x3b, 0x24, 0x45, 0x91, 0xa2, 0x48, 0x24, 0x05, 0x91,
   0xa2, 0x48, 0x24, 0x3d, 0x77, 0xa2, 0x3b, 0x24, 0x41, 0x51, 0x94, 0x28,
   0x24, 0x45, 0x91, 0x94, 0x48, 0xce, 0x38, 0x97, 0x88, 0x4b, 0x00, 0x00,
   0x00, 0x00, 0x00, 0x00, 0x00, 0x00, 0x00, 0x00, 0x00, 0x00, 0x00, 0x00,
   0x00, 0x00, 0x00, 0x00, 0x00, 0x00, 0x00, 0x00, 0x00, 0x00, 0x00, 0x00,
   0x00, 0x00, 0x00, 0x00, 0x00, 0x00, 0x00, 0x00, 0x00, 0x00, 0x00, 0x00,
   0x00, 0x00, 0x00, 0x00, 0x00, 0x00, 0x00, 0x00, 0x00, 0x00, 0x00, 0x00};
